<?xml version="1.0" standalone="no"?>
<!DOCTYPE svg PUBLIC "-//W3C//DTD SVG 20010904//EN"
 "http://www.w3.org/TR/2001/REC-SVG-20010904/DTD/svg10.dtd">
<svg version="1.0" xmlns="http://www.w3.org/2000/svg"
 width="1304.000000pt" height="1304.000000pt" viewBox="0 0 1304.000000 1304.000000"
 preserveAspectRatio="xMidYMid meet">
<metadata>
Created by potrace 1.14, written by Peter Selinger 2001-2017
</metadata>
<g transform="translate(0.000000,1304.000000) scale(0.100000,-0.100000)"
fill="#000000" stroke="none">
<path d="M1910 10010 l0 -910 -952 -2 -953 -3 -3 -3475 -2 -3475 5557 0 5558
0 3 917 2 918 940 0 940 0 0 3470 0 3470 -5545 0 -5545 0 0 -910z m5795 -871
c173 -22 381 -89 552 -179 331 -173 581 -429 748 -765 117 -235 170 -436 182
-690 32 -693 -341 -1327 -962 -1634 -244 -121 -442 -170 -717 -178 -223 -7
-394 17 -593 83 -608 201 -1052 713 -1167 1344 -32 175 -31 433 0 605 91 490
380 914 802 1176 337 209 735 291 1155 238z m-5795 -3029 l0 -2130 4170 0
4170 0 0 -490 0 -490 -1167 -2 c-643 -1 -2755 -2 -4695 -3 l-3528 -2 0 2624 0
2623 525 0 525 0 0 -2130z m2337 1869 c42 -15 92 -68 103 -109 14 -50 13 -794
-1 -845 -14 -50 -64 -100 -114 -114 -26 -7 -177 -11 -428 -11 -326 0 -393 2
-424 15 -48 20 -71 41 -94 87 -18 35 -19 65 -19 446 0 407 0 409 23 452 16 30
37 51 67 67 43 23 45 23 451 23 263 0 418 -4 436 -11z m7303 -11 c33 -17 51
-35 68 -68 22 -44 22 -49 22 -452 0 -448 0 -451 -59 -501 -56 -46 -78 -48
-507 -45 l-400 3 -41 27 c-24 16 -49 44 -62 70 -20 43 -21 57 -21 441 0 427 1
440 53 496 46 49 54 50 492 51 406 0 411 0 455 -22z"/>
</g>
</svg>
