<svg xmlns="http://www.w3.org/2000/svg" fill="none" viewBox="0 0 433 330"><path fill="#F59297" fill-rule="evenodd" d="M430.866 209.249C422.087 125.84 369.958 55.522 297.7 21.775h-67.457v55.854c64.687 12.64 115.254 65.38 125.365 131.62h75.258Z" clip-rule="evenodd"/><path fill="#FABD84" fill-rule="evenodd" d="M431.027 210.845h-75.178a161.599 161.599 0 0 1 1.62 22.873c0 23.49-5.032 45.783-14.074 65.845V330h68.594c12.971-29.217 20.198-61.616 20.198-95.723-.022-7.9-.401-15.719-1.16-23.432Z" clip-rule="evenodd"/><path fill="#FCC9B3" fill-rule="evenodd" d="M390.917 176.687c-18.441 0-33.39 15.113-33.39 33.759v4.763c0 18.645 14.949 33.759 33.39 33.759 18.441 0 33.389-15.114 33.389-33.759v-4.763c.011-18.646-14.937-33.759-33.389-33.759Z" clip-rule="evenodd"/><path fill="#978AA4" fill-rule="evenodd" d="M208.241.448a227.744 227.744 0 0 0-7.468-.116C114.886.332 39.927 47.648 0 117.907h92.516c28.138-26.765 66.032-43.156 107.706-43.156 2.688 0 5.365.07 8.019.197V.448Z" clip-rule="evenodd"/><path fill="#CE6564" fill-rule="evenodd" d="M407.841 129.743c-1.574.047-3.16.071-4.746.071-77.234 0-142.14-53.404-160.558-125.685C315.106 17.5 375.853 65.084 407.841 129.743Z" clip-rule="evenodd"/></svg>
